<svg xmlns="http://www.w3.org/2000/svg" xmlns:xlink="http://www.w3.org/1999/xlink" width="500" zoomAndPan="magnify" viewBox="0 0 375 374.999991" height="500" preserveAspectRatio="xMidYMid meet" version="1.0"><defs><g/><clipPath id="c4861a9eaf"><path d="M 187.5 0 C 83.945312 0 0 83.945312 0 187.5 C 0 291.054688 83.945312 375 187.5 375 C 291.054688 375 375 291.054688 375 187.5 C 375 83.945312 291.054688 0 187.5 0 " clip-rule="nonzero"/></clipPath><clipPath id="64a422047d"><path d="M 69.414062 74.4375 L 305.664062 74.4375 L 305.664062 310.6875 L 69.414062 310.6875 Z M 69.414062 74.4375 " clip-rule="nonzero"/></clipPath><clipPath id="d2e263267d"><path d="M 112.5 104.277344 L 262.5 104.277344 L 262.5 248.277344 L 112.5 248.277344 Z M 112.5 104.277344 " clip-rule="nonzero"/></clipPath></defs><g clip-path="url(#c4861a9eaf)"><rect x="-37.5" width="450" fill="#363635" y="-37.499999" height="449.999989" fill-opacity="1"/></g><g fill="#ffffff" fill-opacity="1"><g transform="translate(89.984553, 291.192681)"><g><path d="M -4.265625 -4.65625 L -10.964844 1.484375 L -14.6875 -2.578125 C -17.566406 -5.71875 -21.449219 -6.160156 -24.675781 -3.203125 C -28.148438 -0.0234375 -27.625 3.5 -24.746094 6.640625 L -18.125 13.867188 L -1.367188 -1.492188 Z M -18.191406 8.105469 L -21.511719 4.484375 C -23.042969 2.8125 -23.117188 1.144531 -21.6875 -0.164062 C -20.21875 -1.511719 -18.605469 -1.292969 -17.054688 0.398438 L -13.730469 4.019531 Z M -18.191406 8.105469 "/></g></g></g><g fill="#ffffff" fill-opacity="1"><g transform="translate(76.550452, 276.165331)"><g><path d="M -3.433594 -4.722656 L -9.699219 -0.171875 C -11.480469 1.125 -12.828125 1.550781 -14.078125 1.355469 C -14.96875 1.191406 -15.84375 0.648438 -16.648438 -0.460938 L -17.191406 -1.207031 L -20.324219 1.070312 L -20.042969 1.457031 C -18.886719 3.046875 -17.511719 3.925781 -15.335938 3.929688 L -16.953125 5.101562 L -14.585938 8.355469 L -1.066406 -1.46875 Z M -3.433594 -4.722656 "/></g></g></g><g fill="#ffffff" fill-opacity="1"><g transform="translate(69.350608, 266.086861)"><g><path d="M -17.800781 6.511719 C -18.503906 5.371094 -19.863281 4.878906 -21.050781 5.617188 C -22.191406 6.324219 -22.40625 7.789062 -21.699219 8.929688 C -20.976562 10.09375 -19.585938 10.527344 -18.445312 9.820312 C -17.257812 9.082031 -17.078125 7.675781 -17.800781 6.511719 Z M -3.074219 -4.960938 L -17.28125 3.839844 L -15.164062 7.261719 L -0.957031 -1.542969 Z M -3.074219 -4.960938 "/></g></g></g><g fill="#ffffff" fill-opacity="1"><g transform="translate(64.67446, 259.637738)"><g><path d="M -2.441406 -5.304688 L -10.476562 -1.605469 C -12.425781 -0.710938 -13.59375 -0.535156 -14.570312 -0.804688 C -15.257812 -1.015625 -15.839844 -1.5 -16.199219 -2.285156 C -16.898438 -3.800781 -16.363281 -5.128906 -14.304688 -6.078125 L -4.804688 -10.445312 L -6.488281 -14.101562 L -14.523438 -10.402344 C -16.285156 -9.59375 -17.574219 -9.261719 -18.683594 -9.605469 C -19.300781 -9.8125 -19.875 -10.269531 -20.246094 -11.082031 C -20.957031 -12.625 -20.421875 -13.886719 -18.339844 -14.84375 L -8.839844 -19.214844 L -10.519531 -22.867188 L -20.480469 -18.285156 C -23.863281 -16.730469 -25.304688 -14.164062 -23.738281 -10.753906 C -22.816406 -8.753906 -21.414062 -7.625 -19.246094 -7.410156 C -20.648438 -6.175781 -20.761719 -4.285156 -19.851562 -2.3125 C -19.128906 -0.742188 -17.898438 0.363281 -15.703125 0.796875 L -17.621094 1.679688 L -15.941406 5.332031 L -0.757812 -1.652344 Z M -2.441406 -5.304688 "/></g></g></g><g fill="#ffffff" fill-opacity="1"><g transform="translate(53.806074, 235.165866)"><g><path d="M -1.488281 -6.484375 C -1.875 -7.859375 -2.460938 -9.054688 -3.402344 -9.875 C -3.945312 -10.371094 -4.589844 -10.683594 -5.421875 -10.882812 L -3.242188 -11.496094 L -4.332031 -15.367188 L -12.707031 -13.007812 C -14.941406 -12.375 -17.464844 -11.664062 -18.59375 -9.304688 C -19.375 -7.785156 -19.378906 -5.832031 -18.855469 -3.96875 C -17.957031 -0.785156 -15.355469 1.855469 -11.4375 1.367188 L -12.519531 -2.472656 C -14.121094 -2.332031 -15.394531 -3.335938 -15.808594 -4.796875 C -16.066406 -5.714844 -16.019531 -6.53125 -15.640625 -7.164062 C -15.261719 -7.796875 -14.558594 -8.273438 -13.59375 -8.578125 L -11.355469 -4.039062 C -10.714844 -2.765625 -9.925781 -1.503906 -8.917969 -0.671875 C -7.828125 0.226562 -6.449219 0.613281 -4.730469 0.128906 C -1.664062 -0.738281 -0.628906 -3.445312 -1.488281 -6.484375 Z M -4.792969 -6.570312 C -4.414062 -5.222656 -4.761719 -4.042969 -5.964844 -3.703125 C -6.511719 -3.550781 -6.96875 -3.636719 -7.371094 -3.863281 C -7.933594 -4.199219 -8.40625 -4.78125 -8.921875 -5.839844 L -10.777344 -9.464844 C -8.640625 -10.007812 -7.144531 -9.964844 -5.835938 -8.507812 C -5.339844 -7.964844 -4.996094 -7.289062 -4.792969 -6.570312 Z M -4.792969 -6.570312 "/></g></g></g><g fill="#ffffff" fill-opacity="1"><g transform="translate(49.088141, 217.788408)"><g><path d="M -0.980469 -5.757812 L -8.617188 -4.457031 C -10.789062 -4.085938 -12.1875 -4.300781 -13.214844 -5.03125 C -13.945312 -5.574219 -14.484375 -6.449219 -14.714844 -7.796875 L -14.871094 -8.707031 L -18.6875 -8.058594 L -18.609375 -7.589844 C -18.277344 -5.648438 -17.433594 -4.253906 -15.488281 -3.285156 L -17.457031 -2.949219 L -16.78125 1.015625 L -0.304688 -1.792969 Z M -0.980469 -5.757812 "/></g></g></g><g fill="#ffffff" fill-opacity="1"><g transform="translate(46.95308, 205.898012)"><g><path d="M 5.6875 -5.238281 C 5.511719 -7.972656 4.355469 -9.179688 1.316406 -10.027344 L -17.746094 -15.292969 L -17.464844 -10.980469 L -4.988281 -8.273438 L -16.980469 -3.578125 L -16.699219 0.761719 L -0.363281 -6.484375 L 0.855469 -6.117188 C 2.132812 -5.722656 2.292969 -5.105469 2.363281 -4.066406 L 2.480469 -2.25 L 5.871094 -2.472656 Z M 5.6875 -5.238281 "/></g></g></g><g fill="#ffffff" fill-opacity="1"><g transform="translate(46.049352, 188.544061)"><g/></g></g><g fill="#ffffff" fill-opacity="1"><g transform="translate(45.961953, 180.115805)"><g><path d="M 1.855469 -10.902344 C 2.554688 -16.21875 0.277344 -19.675781 -3.976562 -20.234375 C -9.085938 -20.90625 -10.679688 -16.578125 -12 -12.9375 C -12.980469 -10.273438 -13.832031 -7.921875 -15.898438 -8.191406 C -17.609375 -8.417969 -18.324219 -10.074219 -18.042969 -12.199219 C -17.742188 -14.503906 -16.394531 -16.28125 -13.929688 -16.527344 L -13.359375 -20.867188 C -18.324219 -20.800781 -21.09375 -17.109375 -21.667969 -12.765625 C -22.265625 -8.21875 -20.441406 -4.492188 -16.101562 -3.921875 C -11.34375 -3.296875 -9.878906 -7.371094 -8.5625 -10.953125 C -7.566406 -13.734375 -6.667969 -16.230469 -4.335938 -15.925781 C -2.179688 -15.640625 -1.464844 -13.742188 -1.773438 -11.410156 C -2.085938 -9.046875 -3.292969 -6.714844 -6.609375 -6.398438 L -7.1875 -1.996094 C -1.296875 -1.792969 1.285156 -6.5625 1.855469 -10.902344 Z M 1.855469 -10.902344 "/></g></g></g><g fill="#ffffff" fill-opacity="1"><g transform="translate(48.756183, 159.500623)"><g><path d="M 2.878906 -9.1875 C 3.945312 -13.035156 2.652344 -16.636719 -0.757812 -18.382812 L -1.917969 -14.191406 C -0.417969 -13.34375 0.238281 -11.925781 -0.277344 -10.058594 C -0.96875 -7.5625 -3.539062 -6.417969 -6.757812 -7.308594 C -9.859375 -8.167969 -11.417969 -10.453125 -10.730469 -12.949219 C -10.269531 -14.617188 -9.109375 -15.5625 -7.480469 -15.636719 L -6.3125 -19.859375 C -9.867188 -19.976562 -12.816406 -17.699219 -13.886719 -13.824219 C -15.238281 -8.941406 -12.734375 -4.695312 -7.851562 -3.347656 C -2.800781 -1.949219 1.539062 -4.335938 2.878906 -9.1875 Z M 2.878906 -9.1875 "/></g></g></g><g fill="#ffffff" fill-opacity="1"><g transform="translate(53.754257, 141.52036)"><g><path d="M 2.285156 -5.40625 L -5.5625 -8.722656 C -7.59375 -9.582031 -8.613281 -10.304688 -9.089844 -11.246094 C -9.484375 -11.996094 -9.476562 -12.929688 -9.023438 -14 C -8.652344 -14.878906 -8.167969 -15.417969 -7.515625 -15.660156 C -6.71875 -15.9375 -5.691406 -15.761719 -4.128906 -15.101562 L 4.789062 -11.332031 L 6.355469 -15.035156 L -2.507812 -18.78125 C -4.042969 -19.433594 -5.445312 -20.023438 -7.066406 -19.933594 C -8.773438 -19.878906 -10.492188 -19.019531 -11.675781 -16.222656 C -12.371094 -14.574219 -12.367188 -13.054688 -11.160156 -11.089844 L -18.652344 -14.253906 L -20.21875 -10.550781 L 0.71875 -1.703125 Z M 2.285156 -5.40625 "/></g></g></g><g fill="#ffffff" fill-opacity="1"><g transform="translate(60.790235, 124.78316)"><g><path d="M 5.203125 -8.171875 C 7.804688 -12.585938 6.480469 -17.378906 1.992188 -20.027344 C -2.34375 -22.585938 -7.210938 -21.375 -9.78125 -17.011719 C -12.355469 -12.648438 -11.074219 -7.847656 -6.710938 -5.273438 C -2.195312 -2.609375 2.644531 -3.835938 5.203125 -8.171875 Z M 2.226562 -9.929688 C 0.910156 -7.695312 -1.878906 -7.195312 -4.621094 -8.816406 C -7.214844 -10.34375 -8.125 -13.023438 -6.804688 -15.257812 C -5.460938 -17.539062 -2.691406 -17.949219 -0.128906 -16.433594 C 2.566406 -14.84375 3.558594 -12.1875 2.226562 -9.929688 Z M 2.226562 -9.929688 "/></g></g></g><g fill="#ffffff" fill-opacity="1"><g transform="translate(70.707628, 107.982937)"><g><path d="M 6.273438 -7.382812 C 9.457031 -11.394531 8.804688 -16.324219 4.722656 -19.5625 C 0.777344 -22.691406 -4.207031 -22.160156 -7.355469 -18.195312 C -10.503906 -14.226562 -9.890625 -9.292969 -5.925781 -6.144531 C -1.816406 -2.886719 3.144531 -3.4375 6.273438 -7.382812 Z M 3.566406 -9.527344 C 1.957031 -7.5 -0.871094 -7.382812 -3.371094 -9.367188 C -5.726562 -11.234375 -6.257812 -14.015625 -4.648438 -16.046875 C -3 -18.125 -0.203125 -18.148438 2.128906 -16.296875 C 4.582031 -14.351562 5.195312 -11.582031 3.566406 -9.527344 Z M 3.566406 -9.527344 "/></g></g></g><g fill="#ffffff" fill-opacity="1"><g transform="translate(83.266639, 92.619294)"><g><path d="M 5.746094 -5.878906 L 3.363281 -8.210938 L 2.613281 -7.445312 C 1.925781 -6.742188 1.378906 -6.734375 0.566406 -7.527344 L -12.210938 -20.023438 L -15.023438 -17.148438 L -1.390625 -3.816406 C 0.460938 -2.007812 2.207031 -2.257812 3.9375 -4.027344 Z M 5.746094 -5.878906 "/></g></g></g><g fill="#ffffff" fill-opacity="1"><g transform="translate(90.162206, 85.630855)"><g/></g></g><g fill="#ffffff" fill-opacity="1"><g transform="translate(96.355297, 79.79054)"><g><path d="M 5.082031 -3.75 L -0.539062 -11.371094 L 7.300781 -17.15625 L 5.035156 -20.222656 L -2.804688 -14.441406 L -6.128906 -18.949219 L 2.621094 -25.402344 L 0.339844 -28.496094 L -11.863281 -19.496094 L 1.628906 -1.203125 Z M 5.082031 -3.75 "/></g></g></g><g fill="#ffffff" fill-opacity="1"><g transform="translate(111.004357, 69.015974)"><g><path d="M 5.960938 -2.949219 C 7.210938 -3.644531 8.238281 -4.492188 8.816406 -5.597656 C 9.175781 -6.238281 9.332031 -6.941406 9.332031 -7.792969 L 10.433594 -5.816406 L 13.949219 -7.773438 L 9.710938 -15.371094 C 8.582031 -17.402344 7.304688 -19.691406 4.746094 -20.242188 C 3.085938 -20.648438 1.1875 -20.203125 -0.503906 -19.261719 C -3.390625 -17.652344 -5.359375 -14.507812 -3.980469 -10.808594 L -0.492188 -12.753906 C -1 -14.277344 -0.320312 -15.75 1.007812 -16.488281 C 1.839844 -16.953125 2.648438 -17.09375 3.351562 -16.875 C 4.054688 -16.652344 4.679688 -16.078125 5.199219 -15.210938 L 1.304688 -11.980469 C 0.210938 -11.066406 -0.835938 -10.003906 -1.410156 -8.832031 C -2.03125 -7.5625 -2.089844 -6.132812 -1.21875 -4.574219 C 0.332031 -1.789062 3.203125 -1.410156 5.960938 -2.949219 Z M 5.285156 -6.183594 C 4.0625 -5.503906 2.832031 -5.566406 2.222656 -6.660156 C 1.945312 -7.15625 1.925781 -7.621094 2.050781 -8.066406 C 2.25 -8.6875 2.703125 -9.28125 3.617188 -10.03125 L 6.710938 -12.675781 C 7.734375 -10.722656 8.039062 -9.253906 6.925781 -7.644531 C 6.511719 -7.039062 5.933594 -6.546875 5.285156 -6.183594 Z M 5.285156 -6.183594 "/></g></g></g><g fill="#ffffff" fill-opacity="1"><g transform="translate(126.52926, 60.34202)"><g><path d="M 9.058594 -3.261719 C 12.765625 -4.742188 14.851562 -7.949219 14.179688 -11.722656 L 10.140625 -10.109375 C 10.371094 -8.40625 9.640625 -7.023438 7.84375 -6.304688 C 5.4375 -5.34375 2.96875 -6.703125 1.734375 -9.800781 C 0.539062 -12.789062 1.417969 -15.417969 3.824219 -16.378906 C 5.429688 -17.019531 6.882812 -16.667969 7.925781 -15.417969 L 11.996094 -17.039062 C 9.9375 -19.941406 6.34375 -20.910156 2.609375 -19.421875 C -2.09375 -17.542969 -3.960938 -12.980469 -2.085938 -8.277344 C -0.140625 -3.40625 4.382812 -1.394531 9.058594 -3.261719 Z M 9.058594 -3.261719 "/></g></g></g><g fill="#ffffff" fill-opacity="1"><g transform="translate(144.275163, 53.563245)"><g><path d="M -1.507812 -18.894531 C -0.21875 -19.269531 0.617188 -20.441406 0.226562 -21.789062 C -0.148438 -23.074219 -1.503906 -23.671875 -2.789062 -23.296875 C -4.105469 -22.914062 -4.898438 -21.691406 -4.523438 -20.402344 C -4.128906 -19.058594 -2.820312 -18.507812 -1.507812 -18.894531 Z M 5.605469 -1.632812 L 0.925781 -17.679688 L -2.933594 -16.554688 L 1.746094 -0.507812 Z M 5.605469 -1.632812 "/></g></g></g><g fill="#ffffff" fill-opacity="1"><g transform="translate(152.455337, 51.184221)"><g><path d="M 8.027344 -1.785156 L 7.300781 -5.042969 L 6.253906 -4.808594 C 5.296875 -4.597656 4.832031 -4.890625 4.585938 -5.996094 L 0.707031 -23.441406 L -3.21875 -22.570312 L 0.921875 -3.957031 C 1.484375 -1.429688 3.082031 -0.6875 5.496094 -1.222656 Z M 8.027344 -1.785156 "/></g></g></g><g fill="#ffffff" fill-opacity="1"><g transform="translate(162.059746, 49.096924)"><g><path d="M 0.949219 -18.929688 C 2.273438 -19.132812 3.257812 -20.191406 3.042969 -21.574219 C 2.835938 -22.898438 1.570312 -23.667969 0.246094 -23.460938 C -1.109375 -23.253906 -2.050781 -22.140625 -1.84375 -20.816406 C -1.628906 -19.433594 -0.40625 -18.71875 0.949219 -18.929688 Z M 5.769531 -0.894531 L 3.207031 -17.410156 L -0.769531 -16.792969 L 1.796875 -0.277344 Z M 5.769531 -0.894531 "/></g></g></g><g fill="#ffffff" fill-opacity="1"><g transform="translate(170.391427, 47.762378)"><g><path d="M 10.332031 -0.839844 L 10.0625 -4.167969 L 8.25 -4.019531 C 7.003906 -3.917969 6.828125 -4.589844 6.757812 -5.453125 L 6.058594 -14.035156 L 9.265625 -14.292969 L 9.003906 -17.5 L 5.796875 -17.238281 L 5.308594 -23.238281 L 1.300781 -22.910156 L 1.789062 -16.914062 L -0.675781 -16.710938 L -0.414062 -13.507812 L 2.050781 -13.707031 L 2.851562 -3.910156 C 3.058594 -1.324219 4.574219 -0.371094 7.035156 -0.574219 Z M 10.332031 -0.839844 "/></g></g></g><g fill="#ffffff" fill-opacity="1"><g transform="translate(182.197507, 46.683383)"><g><path d="M 4.726562 6.121094 C 7.464844 6.179688 8.769531 5.136719 9.875 2.179688 L 16.769531 -16.355469 L 12.453125 -16.449219 L 8.671875 -4.253906 L 5.035156 -16.609375 L 0.6875 -16.703125 L 6.492188 0.199219 L 6.019531 1.382812 C 5.515625 2.621094 4.886719 2.726562 3.84375 2.703125 L 2.027344 2.664062 L 1.957031 6.0625 Z M 4.726562 6.121094 "/></g></g></g><g fill="#ffffff" fill-opacity="1"><g transform="translate(199.564401, 47.284998)"><g/></g></g><g fill="#ffffff" fill-opacity="1"><g transform="translate(207.795327, 47.603556)"><g><path d="M 6.132812 1.503906 L 10.75 -17.332031 L 11.398438 2.792969 L 15.480469 3.792969 L 25.390625 -13.867188 L 20.746094 5.085938 L 24.910156 6.105469 L 30.324219 -15.972656 L 23.378906 -17.671875 L 14.660156 -1.746094 L 14.265625 -19.90625 L 7.378906 -21.59375 L 1.96875 0.480469 Z M 6.132812 1.503906 "/></g></g></g><g fill="#ffffff" fill-opacity="1"><g transform="translate(234.43382, 54.531049)"><g><path d="M 5.992188 2.882812 C 7.3125 3.441406 8.613281 3.730469 9.839844 3.503906 C 10.566406 3.390625 11.210938 3.082031 11.886719 2.558594 L 11.007812 4.644531 L 14.710938 6.207031 L 18.09375 -1.808594 C 18.996094 -3.949219 20.015625 -6.363281 18.875 -8.722656 C 18.171875 -10.277344 16.652344 -11.5 14.867188 -12.253906 C 11.820312 -13.539062 8.136719 -13.15625 6.070312 -9.789062 L 9.746094 -8.238281 C 10.636719 -9.578125 12.214844 -9.945312 13.613281 -9.355469 C 14.492188 -8.984375 15.101562 -8.4375 15.359375 -7.746094 C 15.617188 -7.054688 15.550781 -6.210938 15.1875 -5.265625 L 10.242188 -6.347656 C 8.847656 -6.644531 7.371094 -6.816406 6.09375 -6.546875 C 4.710938 -6.257812 3.546875 -5.421875 2.855469 -3.777344 C 1.613281 -0.839844 3.085938 1.65625 5.992188 2.882812 Z M 8.125 0.355469 C 6.835938 -0.1875 6.128906 -1.195312 6.617188 -2.347656 C 6.835938 -2.871094 7.191406 -3.175781 7.621094 -3.347656 C 8.234375 -3.574219 8.980469 -3.582031 10.132812 -3.324219 L 14.121094 -2.515625 C 13.210938 -0.503906 12.242188 0.636719 10.289062 0.75 C 9.558594 0.796875 8.8125 0.644531 8.125 0.355469 Z M 8.125 0.355469 "/></g></g></g><g fill="#ffffff" fill-opacity="1"><g transform="translate(250.832828, 61.448964)"><g><path d="M 5.046875 2.933594 L 9.328125 -4.433594 C 10.4375 -6.339844 11.308594 -7.246094 12.304688 -7.597656 C 13.097656 -7.894531 13.996094 -7.785156 15 -7.203125 C 15.824219 -6.722656 16.300781 -6.171875 16.457031 -5.496094 C 16.632812 -4.667969 16.355469 -3.660156 15.5 -2.191406 L 10.636719 6.179688 L 14.089844 8.1875 L 18.921875 -0.132812 C 19.761719 -1.578125 20.523438 -2.890625 20.664062 -4.496094 C 20.800781 -6.210938 20.191406 -8.011719 17.566406 -9.535156 C 16.019531 -10.433594 14.484375 -10.636719 12.382812 -9.6875 L 13.445312 -11.515625 L 9.964844 -13.539062 L 1.570312 0.914062 Z M 5.046875 2.933594 "/></g></g></g><g fill="#ffffff" fill-opacity="1"><g transform="translate(266.569492, 70.618189)"><g><path d="M 5.074219 4.296875 C 6.210938 5.167969 7.398438 5.777344 8.640625 5.867188 C 9.375 5.9375 10.078125 5.800781 10.863281 5.464844 L 9.484375 7.261719 L 12.679688 9.707031 L 17.964844 2.800781 C 19.378906 0.953125 20.972656 -1.125 20.460938 -3.695312 C 20.175781 -5.375 19.011719 -6.945312 17.472656 -8.121094 C 14.847656 -10.128906 11.183594 -10.683594 8.335938 -7.949219 L 11.507812 -5.523438 C 12.703125 -6.59375 14.324219 -6.554688 15.53125 -5.632812 C 16.285156 -5.050781 16.738281 -4.367188 16.816406 -3.632812 C 16.890625 -2.902344 16.613281 -2.097656 16.023438 -1.277344 L 11.511719 -3.566406 C 10.238281 -4.207031 8.847656 -4.746094 7.542969 -4.804688 C 6.132812 -4.871094 4.796875 -4.355469 3.710938 -2.9375 C 1.773438 -0.40625 2.566406 2.378906 5.074219 4.296875 Z M 7.777344 2.390625 C 6.664062 1.539062 6.234375 0.382812 6.996094 -0.609375 C 7.339844 -1.058594 7.757812 -1.261719 8.21875 -1.324219 C 8.867188 -1.390625 9.59375 -1.210938 10.640625 -0.667969 L 14.300781 1.117188 C 12.914062 2.832031 11.6875 3.695312 9.769531 3.3125 C 9.050781 3.175781 8.367188 2.839844 7.777344 2.390625 Z M 7.777344 2.390625 "/></g></g></g><g fill="#ffffff" fill-opacity="1"><g transform="translate(280.69908, 81.381681)"><g><path d="M 2.246094 11.203125 C 5.367188 14.320312 8.988281 15.578125 13.050781 11.507812 L 24.097656 0.4375 L 21.25 -2.402344 L 19.757812 -0.90625 C 20.132812 -3.179688 19.542969 -4.613281 18.128906 -6.023438 C 15.050781 -9.09375 10.417969 -8.667969 6.882812 -5.125 C 3.433594 -1.667969 3.015625 2.96875 6.09375 6.039062 C 7.484375 7.429688 8.875 8.058594 11.191406 7.675781 L 9.53125 9.34375 C 8.164062 10.714844 6.371094 10.90625 4.433594 8.96875 C 3.042969 7.582031 2.683594 6.253906 3.480469 4.734375 L 0.613281 1.875 C -1.933594 5.4375 -0.179688 8.785156 2.246094 11.203125 Z M 9.210938 4.265625 C 7.375 2.4375 7.773438 -0.28125 9.792969 -2.304688 C 11.8125 -4.332031 14.53125 -4.734375 16.363281 -2.902344 C 18.15625 -1.113281 17.90625 1.667969 15.84375 3.734375 C 13.78125 5.800781 11.003906 6.054688 9.210938 4.265625 Z M 9.210938 4.265625 "/></g></g></g><g fill="#ffffff" fill-opacity="1"><g transform="translate(294.343974, 95.018826)"><g><path d="M 5.585938 7.878906 C 8.292969 11.433594 12 11.828125 15.179688 10.644531 L 12.691406 7.375 C 11.273438 7.777344 9.582031 7.421875 8.425781 5.902344 C 7.378906 4.527344 7.261719 2.898438 8.023438 1.34375 C 8.246094 0.796875 8.675781 0.132812 9.207031 -0.347656 L 16.859375 9.703125 L 17.546875 9.179688 C 22.359375 5.515625 21.972656 0.683594 19.355469 -2.753906 C 15.890625 -7.304688 10.734375 -6.75 7.25 -4.097656 C 3.316406 -1.101562 2.480469 3.800781 5.585938 7.878906 Z M 11.710938 -2.027344 C 12.101562 -2.25 12.644531 -2.472656 13.339844 -2.445312 C 14.757812 -2.550781 15.988281 -1.914062 16.890625 -0.730469 C 17.777344 0.433594 18.097656 1.835938 17.617188 3.175781 C 17.46875 3.8125 17.082031 4.292969 16.765625 4.609375 Z M 11.710938 -2.027344 "/></g></g></g><g fill="#ffffff" fill-opacity="1"><g transform="translate(306.082205, 109.895335)"><g><path d="M 2.746094 5.152344 L 10.554688 0.992188 C 12.445312 -0.015625 13.601562 -0.257812 14.59375 -0.046875 C 15.289062 0.121094 15.902344 0.574219 16.308594 1.335938 C 17.089844 2.808594 16.632812 4.167969 14.636719 5.230469 L 5.40625 10.148438 L 7.300781 13.695312 L 15.105469 9.535156 C 16.816406 8.625 18.085938 8.21875 19.210938 8.496094 C 19.84375 8.667969 20.441406 9.089844 20.859375 9.878906 C 21.660156 11.378906 21.199219 12.671875 19.175781 13.75 L 9.945312 18.667969 L 11.839844 22.214844 L 21.511719 17.058594 C 24.800781 15.308594 26.089844 12.664062 24.324219 9.351562 C 23.289062 7.40625 21.820312 6.363281 19.648438 6.273438 C 20.972656 4.960938 20.976562 3.066406 19.953125 1.148438 C 19.140625 -0.375 17.847656 -1.410156 15.628906 -1.710938 L 17.496094 -2.707031 L 15.601562 -6.253906 L 0.855469 1.605469 Z M 2.746094 5.152344 "/></g></g></g><g fill="#ffffff" fill-opacity="1"><g transform="translate(318.385086, 133.631406)"><g><path d="M 2.804688 9.242188 C 4.246094 13.472656 7.636719 15.019531 11.027344 14.90625 L 9.703125 11.011719 C 8.230469 10.949219 6.738281 10.074219 6.121094 8.269531 C 5.566406 6.632812 5.96875 5.046875 7.183594 3.8125 C 7.570312 3.367188 8.1875 2.875 8.84375 2.585938 L 12.917969 14.542969 L 13.738281 14.265625 C 19.460938 12.3125 20.625 7.605469 19.230469 3.515625 C 17.386719 -1.898438 12.320312 -3.003906 8.175781 -1.589844 C 3.496094 0.00390625 1.152344 4.390625 2.804688 9.242188 Z M 11.75 1.785156 C 12.191406 1.699219 12.777344 1.65625 13.429688 1.90625 C 14.804688 2.253906 15.773438 3.246094 16.253906 4.65625 C 16.726562 6.039062 16.582031 7.472656 15.707031 8.589844 C 15.359375 9.148438 14.84375 9.480469 14.441406 9.679688 Z M 11.75 1.785156 "/></g></g></g><g fill="#ffffff" fill-opacity="1"><g transform="translate(324.540105, 151.825381)"><g><path d="M 1.140625 5.726562 L 9.496094 4.0625 C 11.660156 3.632812 12.914062 3.683594 13.835938 4.199219 C 14.585938 4.597656 15.097656 5.347656 15.324219 6.484375 C 15.511719 7.421875 15.410156 8.140625 15.007812 8.707031 C 14.503906 9.382812 13.5625 9.84375 11.898438 10.175781 L 2.402344 12.066406 L 3.183594 15.980469 L 12.621094 14.101562 C 14.253906 13.777344 15.746094 13.480469 17.042969 12.523438 C 18.417969 11.488281 19.363281 9.84375 18.773438 6.863281 C 18.421875 5.109375 17.558594 3.824219 15.457031 2.875 L 17.53125 2.460938 L 16.746094 -1.480469 L 0.355469 1.78125 Z M 1.140625 5.726562 "/></g></g></g><g fill="#ffffff" fill-opacity="1"><g transform="translate(327.944298, 169.918672)"><g><path d="M 0.929688 10.324219 L 4.253906 10.027344 L 4.089844 8.214844 C 3.976562 6.96875 4.648438 6.789062 5.511719 6.710938 L 14.085938 5.941406 L 14.375 9.144531 L 17.578125 8.855469 L 17.289062 5.652344 L 23.28125 5.109375 L 22.921875 1.105469 L 16.929688 1.644531 L 16.707031 -0.816406 L 13.5 -0.527344 L 13.722656 1.933594 L 3.933594 2.816406 C 1.351562 3.046875 0.410156 4.570312 0.632812 7.03125 Z M 0.929688 10.324219 "/></g></g></g><g fill="#ffffff" fill-opacity="1"><g transform="translate(328.946053, 182.022258)"><g/></g></g><g fill="#ffffff" fill-opacity="1"><g transform="translate(329.392186, 190.439168)"><g><path d="M -1.390625 10.972656 C -1.863281 16.3125 0.5625 19.667969 4.835938 20.046875 C 9.96875 20.5 11.375 16.109375 12.539062 12.414062 C 13.40625 9.710938 14.15625 7.324219 16.230469 7.507812 C 17.953125 7.660156 18.738281 9.285156 18.546875 11.421875 C 18.34375 13.734375 17.074219 15.566406 14.621094 15.917969 L 14.234375 20.28125 C 19.195312 20.003906 21.804688 16.195312 22.191406 11.832031 C 22.59375 7.265625 20.613281 3.621094 16.253906 3.234375 C 11.472656 2.808594 10.179688 6.941406 9.023438 10.578125 C 8.144531 13.402344 7.351562 15.933594 5.007812 15.726562 C 2.839844 15.535156 2.050781 13.667969 2.257812 11.324219 C 2.46875 8.949219 3.574219 6.566406 6.875 6.113281 L 7.265625 1.691406 C 1.371094 1.738281 -1.003906 6.609375 -1.390625 10.972656 Z M -1.390625 10.972656 "/></g></g></g><g fill="#ffffff" fill-opacity="1"><g transform="translate(327.415779, 211.198673)"><g><path d="M -6.9375 3.414062 C -7.542969 6.085938 -6.777344 7.570312 -4.101562 9.246094 L 12.691406 19.6875 L 13.640625 15.476562 L 2.441406 9.347656 L 15.273438 8.238281 L 16.230469 3.996094 L -1.488281 6.320312 L -2.550781 5.625 C -3.667969 4.882812 -3.644531 4.246094 -3.414062 3.230469 L -3.015625 1.457031 L -6.328125 0.710938 Z M -6.9375 3.414062 "/></g></g></g><g fill="#ffffff" fill-opacity="1"><g transform="translate(323.65493, 227.856739)"><g><path d="M -3.359375 8.417969 C -4.8125 12.484375 -3.65625 15.617188 -0.597656 16.710938 C 3.019531 18.007812 4.839844 14.859375 6.367188 12.273438 C 7.421875 10.46875 8.332031 8.898438 9.625 9.359375 C 10.605469 9.710938 10.890625 10.855469 10.351562 12.371094 C 9.796875 13.914062 8.644531 15.019531 6.773438 14.855469 L 5.496094 18.417969 C 9.121094 19.082031 12 17.136719 13.3125 13.460938 C 14.476562 10.210938 14.058594 6.863281 10.777344 5.691406 C 7.273438 4.4375 5.453125 7.394531 3.949219 9.921875 C 2.84375 11.773438 1.855469 13.382812 0.453125 12.882812 C -0.722656 12.460938 -0.949219 11.050781 -0.375 9.453125 C 0.316406 7.515625 1.734375 6.472656 3.617188 6.609375 L 4.949219 2.878906 C 0.804688 1.996094 -2.074219 4.828125 -3.359375 8.417969 Z M -3.359375 8.417969 "/></g></g></g><g fill="#ffffff" fill-opacity="1"><g transform="translate(317.570342, 244.352332)"><g><path d="M -4.484375 9.347656 L -1.476562 10.789062 L -0.691406 9.152344 C -0.148438 8.023438 0.519531 8.210938 1.296875 8.585938 L 9.058594 12.3125 L 7.667969 15.210938 L 10.570312 16.605469 L 11.960938 13.703125 L 17.386719 16.308594 L 19.125 12.679688 L 13.699219 10.078125 L 14.769531 7.847656 L 11.871094 6.457031 L 10.800781 8.683594 L 1.9375 4.433594 C -0.398438 3.3125 -1.984375 4.136719 -3.054688 6.363281 Z M -4.484375 9.347656 "/></g></g></g><g fill="#ffffff" fill-opacity="1"><g transform="translate(312.64116, 255.06036)"><g><path d="M -5.386719 8.015625 C -7.75 11.808594 -6.804688 15.417969 -4.570312 17.96875 L -2.394531 14.480469 C -3.273438 13.300781 -3.539062 11.589844 -2.53125 9.972656 C -1.617188 8.503906 -0.132812 7.816406 1.589844 7.976562 C 2.175781 7.992188 2.949219 8.160156 3.589844 8.488281 L -3.09375 19.207031 L -2.363281 19.664062 C 2.769531 22.863281 7.152344 20.785156 9.441406 17.121094 C 12.464844 12.269531 10.117188 7.644531 6.402344 5.328125 C 2.207031 2.710938 -2.675781 3.667969 -5.386719 8.015625 Z M 6.046875 10.230469 C 6.394531 10.519531 6.796875 10.945312 7.015625 11.605469 C 7.617188 12.894531 7.460938 14.273438 6.671875 15.535156 C 5.898438 16.773438 4.699219 17.570312 3.28125 17.597656 C 2.628906 17.683594 2.042969 17.496094 1.632812 17.308594 Z M 6.046875 10.230469 "/></g></g></g><g fill="#ffffff" fill-opacity="1"><g transform="translate(302.895404, 271.308568)"><g><path d="M -3.84375 4.394531 L 2.816406 10.21875 C 4.429688 11.632812 5.066406 12.625 5.21875 13.628906 C 5.304688 14.339844 5.101562 15.070312 4.535156 15.722656 C 3.433594 16.976562 2.003906 17.03125 0.300781 15.539062 L -7.570312 8.65625 L -10.21875 11.679688 L -3.558594 17.507812 C -2.101562 18.78125 -1.273438 19.824219 -1.132812 20.976562 C -1.066406 21.625 -1.253906 22.335938 -1.839844 23.007812 C -2.960938 24.285156 -4.328125 24.3125 -6.054688 22.804688 L -13.925781 15.917969 L -16.574219 18.945312 L -8.324219 26.164062 C -5.519531 28.617188 -2.589844 28.882812 -0.117188 26.058594 C 1.335938 24.402344 1.789062 22.660156 1.101562 20.59375 C 2.800781 21.367188 4.570312 20.699219 6.003906 19.0625 C 7.140625 17.761719 7.648438 16.1875 7.140625 14.003906 L 8.734375 15.398438 L 11.382812 12.371094 L -1.195312 1.367188 Z M -3.84375 4.394531 "/></g></g></g><g clip-path="url(#64a422047d)"><path fill="#b2212a" d="M 277.359375 111.90625 C 272.742188 103.90625 264.363281 99.429688 255.746094 99.425781 L 255.746094 99.421875 C 247.128906 99.414062 238.75 94.941406 234.128906 86.941406 C 227.238281 75.003906 211.972656 70.914062 200.035156 77.804688 L 200.03125 77.808594 L 200.03125 77.800781 C 192.617188 82.070312 183.207031 82.410156 175.242188 77.894531 C 171.53125 75.707031 167.207031 74.453125 162.589844 74.453125 C 153.351562 74.453125 145.289062 79.472656 140.96875 86.933594 L 140.96875 86.929688 C 136.65625 94.390625 128.589844 99.410156 119.351562 99.410156 C 105.566406 99.410156 94.394531 110.582031 94.394531 124.367188 L 94.394531 124.371094 L 94.386719 124.367188 C 94.378906 132.921875 89.96875 141.234375 82.085938 145.875 C 78.332031 147.996094 75.078125 151.113281 72.765625 155.117188 C 68.148438 163.121094 68.464844 172.613281 72.765625 180.082031 C 77.066406 187.546875 77.378906 197.039062 72.761719 205.039062 C 65.867188 216.976562 69.957031 232.242188 81.898438 239.136719 L 81.894531 239.140625 C 89.355469 243.453125 94.371094 251.519531 94.371094 260.757812 C 94.371094 274.542969 105.542969 285.71875 119.328125 285.71875 C 128.566406 285.71875 136.628906 290.734375 140.949219 298.195312 C 145.265625 305.652344 153.328125 310.675781 162.566406 310.675781 C 167.1875 310.675781 171.507812 309.417969 175.21875 307.234375 C 183.183594 302.71875 192.59375 303.054688 200.007812 307.328125 L 200.007812 307.320312 L 200.011719 307.324219 C 211.949219 314.214844 227.214844 310.125 234.109375 298.1875 C 238.726562 290.1875 247.105469 285.710938 255.722656 285.707031 L 255.722656 285.703125 C 264.339844 285.695312 272.71875 281.21875 277.335938 273.21875 C 279.609375 269.28125 280.6875 264.980469 280.683594 260.738281 L 280.6875 260.742188 C 280.695312 252.429688 284.859375 244.335938 292.335938 239.628906 C 296.363281 237.511719 299.863281 234.261719 302.304688 230.03125 C 306.925781 222.027344 306.613281 212.535156 302.308594 205.066406 C 298.007812 197.601562 297.695312 188.105469 302.3125 180.105469 C 309.207031 168.167969 305.117188 152.90625 293.175781 146.011719 L 293.175781 146.007812 L 293.179688 146.007812 C 285.78125 141.726562 280.785156 133.753906 280.707031 124.609375 C 280.75 120.292969 279.671875 115.914062 277.359375 111.90625 " fill-opacity="1" fill-rule="nonzero"/></g><path fill="#ffffff" d="M 187.441406 153.867188 C 179.167969 153.867188 172.433594 160.605469 172.433594 168.886719 C 172.433594 177.160156 179.167969 183.890625 187.441406 183.890625 C 195.714844 183.890625 202.445312 177.160156 202.445312 168.886719 C 202.445312 160.605469 195.714844 153.867188 187.441406 153.867188 Z M 187.441406 181.515625 C 180.476562 181.515625 174.8125 175.847656 174.8125 168.886719 C 174.8125 161.914062 180.476562 156.242188 187.441406 156.242188 C 194.402344 156.242188 200.070312 161.914062 200.070312 168.886719 C 200.070312 175.847656 194.402344 181.515625 187.441406 181.515625 Z M 187.441406 181.515625 " fill-opacity="1" fill-rule="nonzero"/><path fill="#ffffff" d="M 187.441406 158.011719 C 186.785156 158.011719 186.253906 158.542969 186.253906 159.199219 L 186.253906 168.363281 L 182.335938 171.980469 C 181.851562 172.425781 181.820312 173.175781 182.265625 173.65625 C 182.5 173.914062 182.820312 174.039062 183.136719 174.039062 C 183.425781 174.039062 183.714844 173.9375 183.945312 173.726562 L 188.246094 169.757812 C 188.488281 169.535156 188.628906 169.21875 188.628906 168.886719 L 188.628906 159.203125 C 188.628906 158.546875 188.097656 158.011719 187.441406 158.011719 Z M 187.441406 158.011719 " fill-opacity="1" fill-rule="nonzero"/><path fill="#ffffff" d="M 136.648438 218.40625 L 125.957031 218.40625 C 125.296875 218.40625 124.765625 218.9375 124.765625 219.59375 L 124.765625 236.261719 C 124.765625 236.921875 125.296875 237.453125 125.957031 237.453125 L 136.648438 237.453125 C 137.304688 237.453125 137.835938 236.921875 137.835938 236.261719 L 137.835938 219.59375 C 137.835938 218.9375 137.304688 218.40625 136.648438 218.40625 Z M 135.460938 220.78125 L 135.460938 223.515625 L 127.144531 223.515625 L 127.144531 220.78125 Z M 135.460938 220.78125 " fill-opacity="1" fill-rule="nonzero"/><path fill="#ffffff" d="M 151.796875 218.40625 L 141.105469 218.40625 C 140.445312 218.40625 139.914062 218.9375 139.914062 219.59375 L 139.914062 236.261719 C 139.914062 236.921875 140.445312 237.453125 141.105469 237.453125 L 151.796875 237.453125 C 152.453125 237.453125 152.984375 236.921875 152.984375 236.261719 L 152.984375 219.59375 C 152.984375 218.9375 152.453125 218.40625 151.796875 218.40625 Z M 150.609375 220.78125 L 150.609375 223.515625 L 142.292969 223.515625 L 142.292969 220.78125 Z M 150.609375 220.78125 " fill-opacity="1" fill-rule="nonzero"/><path fill="#ffffff" d="M 147.339844 174.363281 L 136.648438 174.363281 C 135.992188 174.363281 135.460938 174.894531 135.460938 175.550781 L 135.460938 192.21875 C 135.460938 192.878906 135.992188 193.40625 136.648438 193.40625 L 147.339844 193.40625 C 148 193.40625 148.53125 192.878906 148.53125 192.21875 L 148.53125 175.550781 C 148.53125 174.894531 147.996094 174.363281 147.339844 174.363281 Z M 146.152344 176.738281 L 146.152344 179.460938 L 137.835938 179.460938 L 137.835938 176.738281 Z M 146.152344 176.738281 " fill-opacity="1" fill-rule="nonzero"/><g clip-path="url(#d2e263267d)"><path fill="#ffffff" d="M 262.121094 167 L 245.890625 140.066406 C 245.675781 139.707031 245.289062 139.492188 244.875 139.492188 L 196.964844 139.492188 L 188.628906 129.542969 L 188.628906 122.414062 C 191.8125 122.777344 194.179688 124.550781 196.46875 126.28125 C 198.375 127.71875 200.175781 129.082031 202.292969 129.445312 C 203.078125 129.582031 203.851562 129.640625 204.601562 129.640625 C 208.425781 129.640625 211.558594 128.164062 211.714844 128.085938 C 212.128906 127.890625 212.390625 127.472656 212.390625 127.015625 L 212.390625 111.320312 C 212.390625 110.914062 212.179688 110.535156 211.835938 110.316406 C 211.492188 110.101562 211.058594 110.074219 210.6875 110.25 C 210.652344 110.265625 206.710938 112.121094 202.695312 111.421875 C 201.148438 111.152344 199.644531 110.015625 197.902344 108.699219 C 195.15625 106.625 192.042969 104.277344 187.441406 104.277344 C 186.785156 104.277344 186.253906 104.804688 186.253906 105.464844 L 186.253906 129.542969 L 177.917969 139.492188 L 130.007812 139.492188 C 129.589844 139.492188 129.203125 139.710938 128.988281 140.066406 L 112.761719 167 C 112.539062 167.367188 112.535156 167.824219 112.742188 168.195312 C 112.953125 168.566406 113.347656 168.800781 113.773438 168.800781 C 113.773438 168.800781 119.796875 168.824219 127.273438 168.835938 L 127.273438 197.996094 L 121.785156 197.996094 C 121.128906 197.996094 120.597656 198.527344 120.597656 199.183594 L 120.597656 243.988281 C 120.597656 244.644531 121.128906 245.175781 121.785156 245.175781 L 154.71875 245.175781 L 154.71875 247.0625 C 154.71875 247.71875 155.25 248.25 155.90625 248.25 L 218.972656 248.25 C 219.628906 248.25 220.160156 247.71875 220.160156 247.0625 L 220.160156 245.175781 L 253.097656 245.175781 C 253.753906 245.175781 254.285156 244.644531 254.285156 243.988281 L 254.285156 199.183594 C 254.285156 198.527344 253.753906 197.996094 253.097656 197.996094 L 247.605469 197.996094 L 247.605469 168.84375 L 261.109375 168.800781 C 261.535156 168.800781 261.929688 168.566406 262.140625 168.195312 C 262.347656 167.824219 262.34375 167.367188 262.121094 167 Z M 202.292969 113.761719 C 205.339844 114.289062 208.253906 113.628906 210.015625 113.050781 L 210.015625 126.222656 C 208.71875 126.714844 205.742188 127.632812 202.695312 127.105469 C 201.148438 126.835938 199.644531 125.699219 197.902344 124.382812 C 195.402344 122.492188 192.585938 120.398438 188.628906 120.035156 L 188.628906 106.730469 C 191.8125 107.09375 194.179688 108.863281 196.46875 110.597656 C 198.375 112.035156 200.175781 113.398438 202.292969 113.761719 Z M 129.652344 168.839844 C 135.179688 168.855469 141.210938 168.867188 146.101562 168.867188 C 146.316406 168.867188 146.53125 168.867188 146.742188 168.867188 C 150.8125 168.867188 153.242188 168.863281 154.71875 168.796875 L 154.71875 197.996094 L 129.652344 197.996094 Z M 122.972656 212.691406 L 154.71875 212.691406 L 154.71875 242.796875 L 122.972656 242.796875 Z M 201.699219 209.496094 L 201.699219 245.875 L 188.640625 245.875 L 188.640625 209.496094 Z M 173.183594 209.496094 L 186.265625 209.496094 L 186.265625 245.875 L 173.183594 245.875 Z M 217.785156 245.875 L 204.074219 245.875 L 204.074219 195.972656 C 204.074219 195.316406 203.542969 194.785156 202.886719 194.785156 L 171.996094 194.785156 C 171.339844 194.785156 170.808594 195.316406 170.808594 195.972656 L 170.808594 245.875 L 157.097656 245.875 L 157.097656 168.046875 L 187.441406 131.824219 L 217.785156 168.046875 Z M 220.160156 242.796875 L 220.160156 212.691406 L 251.90625 212.691406 L 251.90625 242.796875 Z M 220.160156 197.996094 L 220.160156 168.796875 C 221.640625 168.863281 224.066406 168.867188 228.140625 168.871094 C 228.664062 168.871094 229.203125 168.871094 229.75 168.871094 C 234.457031 168.871094 240.0625 168.863281 245.230469 168.851562 L 245.230469 197.996094 Z M 220.160156 197.996094 " fill-opacity="1" fill-rule="nonzero"/></g><path fill="#ffffff" d="M 248.925781 218.40625 L 238.234375 218.40625 C 237.574219 218.40625 237.042969 218.9375 237.042969 219.59375 L 237.042969 236.261719 C 237.042969 236.921875 237.574219 237.453125 238.234375 237.453125 L 248.925781 237.453125 C 249.582031 237.453125 250.113281 236.921875 250.113281 236.261719 L 250.113281 219.59375 C 250.113281 218.9375 249.582031 218.40625 248.925781 218.40625 Z M 247.738281 220.78125 L 247.738281 223.515625 L 239.421875 223.515625 L 239.421875 220.78125 Z M 247.738281 220.78125 " fill-opacity="1" fill-rule="nonzero"/><path fill="#ffffff" d="M 233.777344 218.40625 L 223.085938 218.40625 C 222.425781 218.40625 221.894531 218.9375 221.894531 219.59375 L 221.894531 236.261719 C 221.894531 236.921875 222.425781 237.453125 223.085938 237.453125 L 233.777344 237.453125 C 234.433594 237.453125 234.964844 236.921875 234.964844 236.261719 L 234.964844 219.59375 C 234.964844 218.9375 234.433594 218.40625 233.777344 218.40625 Z M 232.589844 220.78125 L 232.589844 223.515625 L 224.273438 223.515625 L 224.273438 220.78125 Z M 232.589844 220.78125 " fill-opacity="1" fill-rule="nonzero"/><path fill="#ffffff" d="M 238.234375 174.363281 L 227.539062 174.363281 C 226.882812 174.363281 226.351562 174.894531 226.351562 175.550781 L 226.351562 192.21875 C 226.351562 192.878906 226.882812 193.40625 227.539062 193.40625 L 238.234375 193.40625 C 238.890625 193.40625 239.421875 192.878906 239.421875 192.21875 L 239.421875 175.550781 C 239.421875 174.894531 238.886719 174.363281 238.234375 174.363281 Z M 237.042969 176.738281 L 237.042969 179.460938 L 228.726562 179.460938 L 228.726562 176.738281 Z M 237.042969 176.738281 " fill-opacity="1" fill-rule="nonzero"/></svg>